<?xml version="1.0" encoding="UTF-8"?>
<svg id="tension-chart" viewBox="0 0 1920 1080" xmlns="http://www.w3.org/2000/svg" class="w-full h-auto" preserveAspectRatio="xMidYMid meet">
  <defs>
    <linearGradient id="tensionGradient" x1="0%" y1="0%" x2="100%" y2="0%">
      <stop offset="0%" stop-color="#E8836B"/>
      <stop offset="35%" stop-color="#E8836B"/>
      <stop offset="75%" stop-color="#E8836B"/>
      <stop offset="90%" stop-color="#8B4A3D"/>
      <stop offset="100%" stop-color="#6D28D9"/>
    </linearGradient>
    <filter id="curveShadow" x="-5%" y="-5%" width="110%" height="110%">
      <feDropShadow dx="0" dy="3" stdDeviation="4" flood-color="#000" flood-opacity="0.12"/>
    </filter>
    <filter id="pointShadow" x="-30%" y="-30%" width="160%" height="160%">
      <feDropShadow dx="1" dy="1" stdDeviation="2" flood-color="#000" flood-opacity="0.15"/>
    </filter>
    <filter id="boxShadow" x="-5%" y="-5%" width="110%" height="120%">
      <feDropShadow dx="0" dy="2" stdDeviation="3" flood-color="#000" flood-opacity="0.08"/>
    </filter>
  </defs>

  <!-- Background with subtle brand texture -->
  <defs>
    <style>
      <![CDATA[
        .brand-bg { fill: var(--color-brand-bg, #FBF7F4); }
        .brand-text { fill: var(--color-brand-text, #3D2B1F); }
        .brand-coral { fill: var(--color-brand-coral, #E8836B); stroke: var(--color-brand-coral, #E8836B); }
      ]]>
    </style>
    <pattern id="smallGrid" width="20" height="20" patternUnits="userSpaceOnUse">
      <path d="M 20 0 L 0 0 0 20" fill="none" stroke="rgba(251, 247, 244, 0.3)" stroke-width="0.5"/>
    </pattern>
    <pattern id="mediumGrid" width="100" height="100" patternUnits="userSpaceOnUse">
      <rect width="100" height="100" fill="url(#smallGrid)"/>
      <path d="M 100 0 L 0 0 0 100" fill="none" stroke="rgba(251, 247, 244, 0.5)" stroke-width="1"/>
    </pattern>
  </defs>
  
  <rect width="1920" height="1080" fill="url(#mediumGrid)"/>

  <!-- Title -->
  <text x="960" y="68" font-family="'Noto Serif SC', serif" font-size="44" font-weight="300" fill="var(--color-brand-text, #3D2B1F)" text-anchor="middle" letter-spacing="0.02em">【宏观节奏：故事整体的张力心电图】</text>

  <!-- Chart area: origin at (200, 110), chart 1500w x 650h -->
  <g transform="translate(200, 110)">

    <!-- Three-act background zones -->
    <rect class="act-zone" data-act="1" x="0" y="0" width="300" height="650" fill="rgba(232, 131, 107, 0.08)" opacity="0.55" style="cursor:pointer"/>
    <rect class="act-zone" data-act="2" x="300" y="0" width="825" height="650" fill="rgba(232, 131, 107, 0.15)" opacity="0.30" style="cursor:pointer"/>
    <rect class="act-zone" data-act="3" x="1125" y="0" width="375" height="650" fill="rgba(232, 131, 107, 0.10)" opacity="0.55" style="cursor:pointer"/>

    <!-- Grid lines -->
    <g stroke="rgba(61, 43, 31, 0.1)" stroke-width="1">
      <line x1="0" y1="0" x2="1500" y2="0"/>
      <line x1="0" y1="130" x2="1500" y2="130"/>
      <line x1="0" y1="260" x2="1500" y2="260"/>
      <line x1="0" y1="390" x2="1500" y2="390"/>
      <line x1="0" y1="520" x2="1500" y2="520"/>
      <line x1="300" y1="0" x2="300" y2="650"/>
      <line x1="750" y1="0" x2="750" y2="650"/>
      <line x1="1125" y1="0" x2="1125" y2="650"/>
    </g>

    <!-- Axes -->
    <line x1="0" y1="650" x2="1520" y2="650" stroke="var(--color-brand-text, #3D2B1F)" stroke-width="2.5"/>
    <line x1="0" y1="-10" x2="0" y2="650" stroke="var(--color-brand-text, #3D2B1F)" stroke-width="2.5"/>
    <polygon points="1520,650 1510,644 1510,656" fill="var(--color-brand-text, #3D2B1F)"/>
    <polygon points="0,-10 -6,0 6,0" fill="var(--color-brand-text, #3D2B1F)"/>

    <!-- Y-axis label -->
    <text x="-70" y="325" font-family="'Noto Serif SC', serif" font-size="22" fill="var(--color-brand-text, #3D2B1F)" transform="rotate(-90, -70, 325)" text-anchor="middle" letter-spacing="0.01em">紧张程度 ｜ 情节强度</text>

    <!-- X-axis ticks -->
    <g font-family="'Noto Serif SC', serif" font-size="18" fill="var(--color-brand-text, #3D2B1F)" text-anchor="middle" letter-spacing="0.02em">
      <line x1="0" y1="650" x2="0" y2="662" stroke="var(--color-brand-text, #3D2B1F)" opacity="0.4" stroke-width="1.5"/>
      <text x="0" y="685">0%</text>
      <line x1="300" y1="650" x2="300" y2="662" stroke="var(--color-brand-text, #3D2B1F)" opacity="0.4" stroke-width="1.5"/>
      <text x="300" y="685">20%</text>
      <line x1="750" y1="650" x2="750" y2="662" stroke="var(--color-brand-text, #3D2B1F)" opacity="0.4" stroke-width="1.5"/>
      <text x="750" y="685">50%</text>
      <line x1="1125" y1="650" x2="1125" y2="662" stroke="var(--color-brand-text, #3D2B1F)" opacity="0.4" stroke-width="1.5"/>
      <text x="1125" y="685">75%</text>
      <line x1="1500" y1="650" x2="1500" y2="662" stroke="var(--color-brand-text, #3D2B1F)" opacity="0.4" stroke-width="1.5"/>
      <text x="1500" y="685">100%</text>
    </g>

    <!-- Section labels -->
    <g font-family="'Noto Serif SC', serif" font-size="26" font-weight="400" fill="var(--color-brand-text, #3D2B1F)" letter-spacing="0.03em">
      <text x="150" y="725" text-anchor="middle">开头</text>
      <text x="712" y="725" text-anchor="middle">中段</text>
      <text x="1312" y="725" text-anchor="middle">结尾</text>
    </g>

    <!-- X-axis subtitle -->
    <text x="750" y="760" font-family="'Noto Serif SC', serif" font-size="18" fill="var(--color-brand-text, #3D2B1F)" text-anchor="middle" opacity="0.7" letter-spacing="0.02em">故事主线 →</text>

    <!-- Turning Point 1 at 20% -->
    <line x1="300" y1="-10" x2="300" y2="660" stroke="var(--color-brand-coral, #E8836B)" stroke-width="2" stroke-dasharray="6,4"/>
    <rect x="216" y="4" width="168" height="56" fill="var(--color-brand-bg, #FBF7F4)" stroke="var(--color-brand-coral, #E8836B)" stroke-width="1" rx="6" opacity="0.92"/>
    <text x="300" y="28" font-family="'Noto Serif SC', serif" font-size="17" font-weight="400" fill="var(--color-brand-text, #3D2B1F)" text-anchor="middle" letter-spacing="0.01em">转折点① 20%</text>
    <text x="300" y="50" font-family="'Noto Serif SC', serif" font-size="15" fill="var(--color-brand-coral, #E8836B)" text-anchor="middle" letter-spacing="0.01em">☆ 无法折返</text>

    <!-- Turning Point 2 at 75% -->
    <line x1="1125" y1="-10" x2="1125" y2="660" stroke="var(--color-brand-coral, #E8836B)" stroke-width="2" stroke-dasharray="6,4"/>
    <rect x="1041" y="4" width="168" height="56" fill="var(--color-brand-bg, #FBF7F4)" stroke="var(--color-brand-coral, #E8836B)" stroke-width="1" rx="6" opacity="0.92"/>
    <text x="1125" y="28" font-family="'Noto Serif SC', serif" font-size="17" font-weight="400" fill="var(--color-brand-text, #3D2B1F)" text-anchor="middle" letter-spacing="0.01em">转折点② 75%</text>
    <text x="1125" y="50" font-family="'Noto Serif SC', serif" font-size="15" fill="var(--color-brand-coral, #E8836B)" text-anchor="middle" letter-spacing="0.01em">☆ 导向结尾</text>

    <!-- ========== SMOOTH TENSION CURVE ========== -->
    <path d="M 0,582 C -18.75,580.5833333333334 18.75,579.4166666666666 150,496 C 131.25,499.5833333333333 168.75,492.4166666666667 225,539 C 212.5,541.8333333333334 237.5,536.1666666666666 300,462 C 281.25,479.8333333333333 318.75,444.1666666666667 450,325 C 431.25,329.25 468.75,320.75 525,411 C 512.5,414.75 537.5,407.25 600,280 C 587.5,284.25 612.5,275.75 675,360 C 662.5,370 687.5,350 750,160 C 737.5,165 762.5,155 825,300 C 812.5,293.3333333333333 837.5,306.6666666666667 900,240 C 885.4166666666666,219.16666666666666 914.5833333333334,260.8333333333333 1000,550 C 981.25,540.8333333333334 1018.75,559.1666666666666 1125,350 C 1108.3333333333333,383 1141.6666666666667,317 1200,154 C 1184.5833333333333,180.33333333333334 1215.4166666666667,127.66666666666667 1310,34 C 1293.3333333333333,31.166666666666668 1326.6666666666667,36.833333333333336 1400,188 C 1384.1666666666667,163.75 1415.8333333333333,212.25 1500,325" fill="none" stroke="url(#tensionGradient)" stroke-width="5" stroke-linejoin="round" stroke-linecap="round" filter="url(#curveShadow)"/>

    <!-- ========== DATA POINT MARKERS ========== -->
    <g filter="url(#pointShadow)">
      <!-- Red triangles at PEAKS -->
      <polygon class="data-point" data-index="1" points="150,486 139,508 161,508" fill="var(--color-brand-coral, #E8836B)" stroke="var(--color-brand-coral, #E8836B)" stroke-width="1.5" style="cursor:pointer"/>
      <polygon class="data-point" data-index="4" points="450,315 439,337 461,337" fill="var(--color-brand-coral, #E8836B)" stroke="var(--color-brand-coral, #E8836B)" stroke-width="1.5" style="cursor:pointer"/>
      <polygon class="data-point" data-index="6" points="600,270 589,292 611,292" fill="var(--color-brand-coral, #E8836B)" stroke="var(--color-brand-coral, #E8836B)" stroke-width="1.5" style="cursor:pointer"/>
      <polygon class="data-point" data-index="8" points="750,150 739,172 761,172" fill="var(--color-brand-coral, #E8836B)" stroke="var(--color-brand-coral, #E8836B)" stroke-width="1.5" style="cursor:pointer"/>
      <polygon class="data-point" data-index="10" points="900,230 889,252 911,252" fill="var(--color-brand-coral, #E8836B)" stroke="var(--color-brand-coral, #E8836B)" stroke-width="1.5" style="cursor:pointer"/>
      <!-- Climax triangle — larger -->
      <polygon class="data-point climax-pulse" data-index="14" points="1310,20 1296,48 1324,48" fill="var(--color-brand-coral, #E8836B)" stroke="var(--color-brand-coral, #E8836B)" stroke-width="2" style="cursor:pointer"/>
      <!-- Blue circles at VALLEYS -->
      <circle class="data-point" data-index="2" cx="225" cy="539" r="10" fill="var(--color-brand-text, #3D2B1F)" stroke="var(--color-brand-text, #3D2B1F)" stroke-width="1.5" style="cursor:pointer"/>
      <circle class="data-point" data-index="5" cx="525" cy="411" r="10" fill="var(--color-brand-text, #3D2B1F)" stroke="var(--color-brand-text, #3D2B1F)" stroke-width="1.5" style="cursor:pointer"/>
      <circle class="data-point" data-index="7" cx="675" cy="360" r="10" fill="var(--color-brand-text, #3D2B1F)" stroke="var(--color-brand-text, #3D2B1F)" stroke-width="1.5" style="cursor:pointer"/>
      <circle class="data-point" data-index="9" cx="825" cy="300" r="10" fill="var(--color-brand-text, #3D2B1F)" stroke="var(--color-brand-text, #3D2B1F)" stroke-width="1.5" style="cursor:pointer"/>
      <circle class="data-point" data-index="11" cx="1000" cy="550" r="10" fill="var(--color-brand-text, #3D2B1F)" stroke="var(--color-brand-text, #3D2B1F)" stroke-width="1.5" style="cursor:pointer"/>
      <circle class="data-point" data-index="13" cx="1200" cy="154" r="10" fill="var(--color-brand-text, #3D2B1F)" stroke="var(--color-brand-text, #3D2B1F)" stroke-width="1.5" style="cursor:pointer"/>
      <circle class="data-point" data-index="15" cx="1400" cy="188" r="10" fill="var(--color-brand-text, #3D2B1F)" stroke="var(--color-brand-text, #3D2B1F)" stroke-width="1.5" style="cursor:pointer"/>
      <!-- Climax glow ring -->
      <circle cx="1310" cy="34" r="24" fill="none" stroke="var(--color-brand-coral, #E8836B)" stroke-width="2" opacity="0.25"/>
    </g>

    <!-- Hit areas for start/turning/end points -->
    <circle class="data-point" data-index="0" cx="0" cy="582" r="14" fill="transparent" style="cursor:pointer"/>
    <circle class="data-point" data-index="3" cx="300" cy="462" r="14" fill="transparent" style="cursor:pointer"/>
    <circle class="data-point" data-index="12" cx="1125" cy="350" r="14" fill="transparent" style="cursor:pointer"/>
    <circle class="data-point" data-index="16" cx="1500" cy="325" r="14" fill="transparent" style="cursor:pointer"/>

    <!-- ========== ANNOTATIONS ========== -->
    <rect x="668" y="116" width="164" height="32" fill="var(--color-brand-bg, #FBF7F4)" stroke="var(--color-brand-coral, #E8836B)" stroke-width="1" rx="6" opacity="0.92"/>
    <text x="750" y="139" font-family="'Noto Serif SC', serif" font-size="17" font-weight="400" fill="var(--color-brand-text, #3D2B1F)" text-anchor="middle" letter-spacing="0.01em">中点：第二幕高峰</text>
    <rect x="910" y="556" width="180" height="34" fill="var(--color-brand-bg, #FBF7F4)" stroke="var(--color-brand-coral, #E8836B)" stroke-width="1" rx="6" opacity="0.92"/>
    <text x="1000" y="580" font-family="'Noto Serif SC', serif" font-size="18" font-weight="400" fill="var(--color-brand-text, #3D2B1F)" text-anchor="middle" letter-spacing="0.01em">一无所有时刻</text>
    <rect x="1345" y="6" width="148" height="60" fill="var(--color-brand-bg, #FBF7F4)" stroke="var(--color-brand-coral, #E8836B)" stroke-width="1" rx="8" filter="url(#boxShadow)"/>
    <text x="1419" y="32" font-family="'Noto Serif SC', serif" font-size="22" font-weight="400" fill="var(--color-brand-coral, #E8836B)" text-anchor="middle" letter-spacing="0.02em">▲ 高潮</text>
    <text x="1419" y="56" font-family="'Noto Serif SC', serif" font-size="17" fill="var(--color-brand-coral, #E8836B)" text-anchor="middle" letter-spacing="0.01em">冲击结尾</text>
    <line x1="1345" y1="36" x2="1330" y2="36" stroke="var(--color-brand-coral, #E8836B)" stroke-width="1.5"/>
    <polygon points="1330,36 1338,32 1338,40" fill="var(--color-brand-coral, #E8836B)"/>
  </g>

  <!-- Legend -->
  <g transform="translate(200, 905)">
    <rect x="-15" y="-28" width="580" height="70" fill="var(--color-brand-bg, #FBF7F4)" stroke="var(--color-brand-coral, #E8836B)" stroke-width="1" rx="10" filter="url(#boxShadow)"/>
    <text x="8" y="6" font-family="'Noto Serif SC', serif" font-size="22" font-weight="400" fill="var(--color-brand-text, #3D2B1F)" letter-spacing="0.02em">图例</text>
    <polygon points="90,-4 78,18 102,18" fill="var(--color-brand-coral, #E8836B)" stroke="var(--color-brand-coral, #E8836B)" stroke-width="1.5"/>
    <text x="114" y="16" font-family="'Noto Serif SC', serif" font-size="20" fill="var(--color-brand-text, #3D2B1F)" letter-spacing="0.01em">挫折、阻碍、问题</text>
    <circle cx="350" cy="6" r="9" fill="var(--color-brand-text, #3D2B1F)" stroke="var(--color-brand-text, #3D2B1F)" stroke-width="1.5"/>
    <text x="370" y="16" font-family="'Noto Serif SC', serif" font-size="20" fill="var(--color-brand-text, #3D2B1F)" letter-spacing="0.01em">推进动作场景</text>
  </g>

  <!-- Info Box -->
  <g transform="translate(1080, 905)">
    <rect x="-15" y="-28" width="650" height="70" fill="var(--color-brand-bg, #FBF7F4)" stroke="var(--color-brand-coral, #E8836B)" stroke-width="1" rx="10" filter="url(#boxShadow)"/>
    <text x="8" y="2" font-family="'Noto Serif SC', serif" font-size="22" font-weight="400" fill="var(--color-brand-text, #3D2B1F)" letter-spacing="0.02em">理想张力曲线特征</text>
    <text x="8" y="30" font-family="'Noto Serif SC', serif" font-size="18" fill="var(--color-brand-text, #3D2B1F)" letter-spacing="0.01em">① 明确上升趋势 ② 丰富起伏变化 ③ 高峰在 75-85% ④ 适当回落坡度</text>
  </g>

  <!-- Branding -->
  <text x="1880" y="1065" font-family="'Noto Serif SC', serif" font-size="14" fill="var(--color-brand-text, #3D2B1F)" opacity="0.5" text-anchor="end" letter-spacing="0.02em">© 施施小洛 ssxl.me</text>
</svg>
